<?xml version="1.0"?>
<svg xmlns="http://www.w3.org/2000/svg" xmlns:xlink="http://www.w3.org/1999/xlink" version="1.1" viewBox="0 0 192 192" width="80px" height="80px"><g fill="none" fill-rule="nonzero" stroke="none" stroke-width="1" stroke-linecap="butt" stroke-linejoin="miter" stroke-miterlimit="10" stroke-dasharray="" stroke-dashoffset="0" font-family="none" font-weight="none" font-size="none" text-anchor="none" style="mix-blend-mode: normal"><path d="M0,192v-192h192v192z" fill="none"/><g id="Layer_1"><g fill="#000000" font-family="-apple-system, BlinkMacSystemFont, &quot;San Francisco&quot;, HelveticaNeue-Light, &quot;Helvetica Neue Light&quot;, &quot;Helvetica Neue&quot;, &quot;Segoe UI&quot;, &quot;Fira Sans&quot;, Roboto, Oxygen, Ubuntu, &quot;Droid Sans&quot;, Arial, sans-serif" font-weight="400" font-size="16" text-anchor="start" visibility="hidden"/><path d="M96,184.8c-48.96,0 -88.8,-39.84 -88.8,-88.8c0,-48.96 39.84,-88.8 88.8,-88.8c48.96,0 88.8,39.84 88.8,88.8c0,48.96 -39.84,88.8 -88.8,88.8z" fill="#66cd6e"/><path d="M96,9.6c47.52,0 86.4,38.88 86.4,86.4c0,47.52 -38.88,86.4 -86.4,86.4c-47.52,0 -86.4,-38.88 -86.4,-86.4c0,-47.52 38.88,-86.4 86.4,-86.4M96,4.8c-50.4,0 -91.2,40.8 -91.2,91.2c0,50.4 40.8,91.2 91.2,91.2c50.4,0 91.2,-40.8 91.2,-91.2c0,-50.4 -40.8,-91.2 -91.2,-91.2z" fill="#5e9c76"/><path d="M81.6,134.4l-33.12,-33.12l10.08,-10.08l23.04,23.04l58.08,-58.08l10.08,10.08z" fill="#ffffff"/></g></g></svg>
