<svg version="1.1" id="Layer_2" xmlns="http://www.w3.org/2000/svg" xmlns:xlink="http://www.w3.org/1999/xlink" x="0px" y="0px" viewBox="0 0 100 100" style="enable-background:new 0 0 100 100;" xml:space="preserve">
<path style="fill:#7783AD;" d="M25,30l3.645,47.383C28.845,79.988,31.017,82,33.63,82h32.74c2.613,0,4.785-2.012,4.985-4.617L75,30"></path>
<path style="fill:#F15B6C;" d="M64.41,66.58c0.38,0.37,0.59,0.88,0.59,1.41c0,0.53-0.21,1.04-0.59,1.41
    c-0.37,0.38-0.88,0.59-1.41,0.59s-1.04-0.21-1.41-0.59L50,57.82L38.41,69.4c-0.75,0.76-2.07,0.76-2.82,0
    C35.21,69.03,35,68.52,35,67.99c0-0.53,0.21-1.04,0.59-1.41l11.58-11.59L35.59,43.4C35.21,43.03,35,42.52,35,41.99
    c0-0.53,0.21-1.04,0.59-1.41c0.75-0.76,2.07-0.76,2.82,0L50,52.16l11.59-11.58c0.75-0.76,2.07-0.76,2.82,0
    c0.38,0.37,0.59,0.88,0.59,1.41c0,0.53-0.21,1.04-0.59,1.41L52.83,54.99L64.41,66.58z"></path>
<path style="fill:#A3A3CD;" d="M77,24h-4l-1.835-3.058C70.442,19.737,69.14,19,67.735,19h-35.47c-1.405,0-2.707,0.737-3.43,1.942
    L27,24h-4c-1.657,0-3,1.343-3,3s1.343,3,3,3h54c1.657,0,3-1.343,3-3S78.657,24,77,24z"></path>
<g>
    <path style="fill:#1F212B;" d="M31.204,65.053c-0.275,0.021-0.481,0.262-0.46,0.537l0.888,11.558
        c0.02,0.263,0.239,0.462,0.498,0.462c0.013,0,0.026,0,0.039-0.001c0.275-0.021,0.481-0.262,0.46-0.537L31.74,65.514
        C31.719,65.238,31.477,65.028,31.204,65.053z"></path>
    <path style="fill:#1F212B;" d="M70.721,40.012c-0.276-0.024-0.516,0.185-0.537,0.46l-1.769,23.019
        c-0.021,0.275,0.185,0.516,0.46,0.537c0.013,0.001,0.026,0.001,0.039,0.001c0.259,0,0.478-0.199,0.498-0.462l1.769-23.019
        C71.202,40.274,70.996,40.033,70.721,40.012z"></path>
    <path style="fill:#1F212B;" d="M71.031,35.978c-0.273-0.021-0.516,0.185-0.537,0.46l-0.077,0.997
        c-0.021,0.275,0.185,0.516,0.46,0.537c0.013,0.001,0.026,0.001,0.039,0.001c0.259,0,0.478-0.199,0.498-0.462l0.077-0.997
        C71.512,36.24,71.306,35.999,71.031,35.978z"></path>
    <path style="fill:#1F212B;" d="M77,23h-3.434l-1.544-2.573C71.125,18.93,69.481,18,67.735,18H57v-2c0-1.654-1.346-3-3-3h-8
        c-1.654,0-3,1.346-3,3v2H32.265c-1.746,0-3.389,0.93-4.287,2.427L26.434,23H23c-2.206,0-4,1.794-4,4s1.794,4,4,4h1.074l3.574,46.46
        C27.887,80.566,30.515,83,33.63,83H66.37c3.116,0,5.744-2.434,5.982-5.54L75.926,31H77c2.206,0,4-1.794,4-4S79.206,23,77,23z
         M45,16c0-0.551,0.449-1,1-1h8c0.551,0,1,0.449,1,1v2H45V16z M70.358,77.307C70.199,79.378,68.447,81,66.37,81H33.63
        c-2.077,0-3.829-1.622-3.988-3.693L26.08,31h2.005l2.347,30.546c0.02,0.263,0.239,0.462,0.498,0.462c0.013,0,0.026,0,0.039-0.001
        c0.275-0.021,0.481-0.262,0.46-0.537L29.088,31h41.824l-0.261,3.392c-0.021,0.275,0.185,0.516,0.46,0.537
        c0.013,0.001,0.026,0.001,0.039,0.001c0.259,0,0.478-0.199,0.498-0.461L71.915,31h2.005L70.358,77.307z M77,29H23
        c-1.103,0-2-0.897-2-2s0.897-2,2-2h2.5H27h34.5c0.276,0,0.5-0.224,0.5-0.5S61.776,24,61.5,24H28.166l1.526-2.543
        C30.231,20.558,31.217,20,32.265,20h35.471c1.048,0,2.033,0.558,2.572,1.457L71.834,24H68.5c-0.276,0-0.5,0.224-0.5,0.5
        s0.224,0.5,0.5,0.5H73h0.5H77c1.103,0,2,0.897,2,2S78.103,29,77,29z"></path>
    <path style="fill:#1F212B;" d="M66.5,24h-2c-0.276,0-0.5,0.224-0.5,0.5s0.224,0.5,0.5,0.5h2c0.276,0,0.5-0.224,0.5-0.5
        S66.776,24,66.5,24z"></path>
    <path style="fill:#1F212B;" d="M65,41.99c0-0.534-0.208-1.036-0.586-1.414c-0.756-0.756-2.072-0.756-2.828,0L50,52.162
        L38.414,40.576c-0.756-0.756-2.072-0.756-2.828,0C35.208,40.954,35,41.456,35,41.99s0.208,1.036,0.586,1.414L47.172,54.99
        L35.586,66.576C35.208,66.954,35,67.456,35,67.99s0.208,1.036,0.586,1.414c0.756,0.756,2.072,0.756,2.828,0L50,57.819
        l11.586,11.586c0.378,0.378,0.88,0.586,1.414,0.586s1.036-0.208,1.414-0.586S65,68.525,65,67.99s-0.208-1.036-0.586-1.414
        L52.828,54.99l11.586-11.586C64.792,43.027,65,42.525,65,41.99z M63.707,42.698L51.768,54.637c-0.195,0.195-0.195,0.512,0,0.707
        l11.939,11.939c0.39,0.39,0.39,1.024,0,1.414c-0.378,0.377-1.036,0.377-1.414,0L50.354,56.758
        c-0.098-0.098-0.226-0.146-0.354-0.146s-0.256,0.049-0.354,0.146L37.707,68.698c-0.378,0.377-1.036,0.377-1.414,0
        c-0.39-0.39-0.39-1.024,0-1.414l11.939-11.939c0.195-0.195,0.195-0.512,0-0.707L36.293,42.698c-0.39-0.39-0.39-1.024,0-1.414
        c0.39-0.391,1.024-0.391,1.414,0l11.939,11.939c0.195,0.195,0.512,0.195,0.707,0l11.939-11.939c0.39-0.391,1.024-0.391,1.414,0
        C64.097,41.673,64.097,42.308,63.707,42.698z"></path>
</g>
</svg>