<svg version="1.1" id="Layer_1" xmlns="http://www.w3.org/2000/svg" xmlns:xlink="http://www.w3.org/1999/xlink" x="0px" y="0px" viewBox="0 0 40 40" style="enable-background:new 0 0 40 40;" xml:space="preserve">
<g>
    <polygon style="fill:#F5CE85;" points="6.021,29.217 8.639,26.599 13.743,31.044 10.807,33.98 2.451,37.548    "></polygon>
    <path style="fill:#967A44;" d="M8.663,27.282l4.348,3.787l-2.49,2.49l-7.119,3.041l3.04-7.096L8.663,27.282 M8.616,25.915
        l-3.017,3.017L1.5,38.499l9.592-4.096l3.384-3.384L8.616,25.915L8.616,25.915z"></path>
</g>
<g>
    <polygon style="fill:#36404D;" points="3.826,33.079 1.503,38.501 6.94,36.18     "></polygon>
</g>
<g>
    <path style="fill:#F78F8F;" d="M29.974,5.25l2.263-2.263c0.638-0.638,1.485-0.988,2.387-0.988s1.75,0.351,2.387,0.988
        c1.316,1.316,1.316,3.458,0,4.774l-2.263,2.263L29.974,5.25z"></path>
    <g>
        <path style="fill:#C74343;" d="M34.624,2.499c0.768,0,1.49,0.299,2.034,0.842C37.201,3.884,37.5,4.606,37.5,5.375
            c0,0.768-0.299,1.49-0.842,2.034l-1.909,1.909L30.681,5.25l1.909-1.909C33.134,2.798,33.856,2.499,34.624,2.499 M34.624,1.499
            c-0.992,0-1.984,0.378-2.741,1.135L29.267,5.25l5.481,5.481l2.616-2.616c1.514-1.514,1.514-3.968,0-5.481v0
            C36.608,1.877,35.616,1.499,34.624,1.499L34.624,1.499z"></path>
    </g>
</g>
<g>
    <path style="fill:#BAE0BD;" d="M11.439,33.348c-0.067-0.156-0.159-0.314-0.286-0.464c-0.313-0.366-0.757-0.59-1.324-0.666
        c-0.201-1.281-1.218-1.822-2.009-1.984c-0.133-0.875-0.658-1.358-1.217-1.599L28.438,6.786l4.774,4.774L11.439,33.348z"></path>
    <g>
        <path style="fill:#5E9C76;" d="M28.438,7.494l4.067,4.067L11.527,32.552c-0.243-0.283-0.645-0.602-1.28-0.762
            c-0.308-1.09-1.167-1.703-2.003-1.963c-0.152-0.556-0.454-0.984-0.836-1.291L28.438,7.494 M28.438,6.079L5.599,28.932
            c0,0,0.007,0,0.021,0c0.199,0,1.732,0.055,1.732,1.748c0,0,2.013,0.062,2.013,2.009c2.002,0,1.727,1.714,1.727,1.714
            l22.828-22.841L28.438,6.079L28.438,6.079z"></path>
    </g>
</g>
<g>
    
        <rect x="29.597" y="4.547" transform="matrix(0.7072 -0.7071 0.7071 0.7072 3.7907 24.9991)" style="fill:#D9E7F5;" width="4.956" height="6.752"></rect>
    <g>
        <path style="fill:#788B9C;" d="M31.44,4.491l4.067,4.067l-2.797,2.797l-4.067-4.067L31.44,4.491 M31.44,3.077l-4.211,4.211
            l5.481,5.481l4.211-4.211L31.44,3.077L31.44,3.077z"></path>
    </g>
</g>
</svg>