<svg xmlns="http://www.w3.org/2000/svg" xmlns:xlink="http://www.w3.org/1999/xlink" version="1.1" width="50" height="50" style=""><rect id="backgroundrect" width="100%" height="100%" x="0" y="0" fill="none" stroke="none"/>

<g class="currentLayer" style=""><title>Layer 1</title>

<g class="" id="svg_3"><g id="svg_6" class="">
<path style=" " d="M29.027826936780237,12.558658407211148 C39.15260375321564,12.558658407211148 47.38775447608923,19.916569116359852 47.38775447608923,28.95940019236083 C47.38775447608923,34.033379682141515 44.72481621714891,38.85430064639987 40.24397132941935,41.94865976041346 C40.34999033186622,42.81033915310053 40.774064745138304,44.90207417967382 42.45165283380637,47.34937236792663 L43.33410199628255,48.63388420479917 L41.756295324244334,48.64029033454046 C37.422005764195276,48.64029033454046 34.490903201873536,45.91110439685539 33.52738138893007,44.86363494111488 C32.064947703291146,45.193571943755096 30.552623708466164,45.36014197751052 29.027826936780237,45.36014197751052 C18.903050120344826,45.36014197751052 10.667899397471238,38.00223126836182 10.667899397471238,28.95940019236083 C10.667899397471238,19.916569116359852 18.903050120344826,12.558658407211148 29.027826936780237,12.558658407211148 z" id="svg_2"/>
</g><path style=" " d="M29.114581585692065,14.253955031488765 C38.19939303522979,14.253955031488765 45.588673159089524,20.85609823821345 45.588673159089524,28.9700946241768 C45.588673159089524,33.5228995418799 42.58442225067802,38.4539383666321 38.563829614307885,41.23046094529455 C39.35064830029357,44.977448216867884 39.57745726602156,44.827922654012674 40.3141852801337,46.31328863526832 L41.003520733462835,47.3869139940078 L39.86957169574916,47.076857970559544 C37.49195309683145,46.36629583271793 35.32303099599536,44.60168262145742 34.3047734495109,42.819660022791986 C32.99254951539052,43.115701612384825 30.48275540334418,43.68624241723573 29.114581585692065,43.68624241723573 C20.029770136154333,43.68624241723573 12.640490012294595,37.08409101014015 12.640490012294595,28.9700946241768 C12.640490012294595,20.85609823821345 20.029770136154333,14.253955031488765 29.114581585692065,14.253955031488765 z" id="svg_7" fill="#ffffff" fill-opacity="1" class=""/><path fill="#ffffff" fill-opacity="1" stroke="none" stroke-opacity="1" stroke-width="1" stroke-dasharray="none" stroke-linejoin="miter" stroke-linecap="butt" stroke-dashoffset="" fill-rule="nonzero" opacity="1" marker-start="" marker-mid="" marker-end="" id="svg_8" d="M38.588977761860534,42.67245980065678 " style="color: rgb(0, 0, 0);" class=""/></g><g id="svg_1" class="">
<path style=" " d="M21.92578792008044,2.0280463695526123 C10.44231166984715,2.0280463695526123 1.1020408216345494,10.151712428046228 1.1020408216345494,20.135652542114258 C1.1020408216345494,25.737693201750517 4.1223333976386956,31.060338930426003 9.204487481834846,34.47673539145494 C9.084241206905027,35.42809181753546 8.603257917946358,37.737518706558106 6.700545065785307,40.43951306512004 L5.69967520138653,41.85770711821723 L7.4892164203493765,41.86477994918823 C12.405148112163264,41.86477994918823 15.729591432907004,38.851561109535396 16.822413532210668,37.695079004591165 C18.481099229787187,38.059353339485824 20.196370291272657,38.2432587146759 21.92578792008044,38.2432587146759 C33.40926417031373,38.2432587146759 42.74953501852633,30.119592656182288 42.74953501852633,20.135652542114258 C42.74953501852633,10.151712428046228 33.40926417031373,2.0280463695526123 21.92578792008044,2.0280463695526123 z" id="svg_2" transform=""/>
</g><path style=" " d="M21.82739118813874,3.8997765644568485 C11.523438971704262,3.8997765644568485 3.142550746008176,11.189020590630797 3.142550746008176,20.147459969003823 C3.142550746008176,25.174086173491506 6.54995859133305,30.618309991530804 11.110096645603198,33.68379190949919 C10.217690436797756,37.8207370999104 9.960444729707259,37.655650054435164 9.12485113526823,39.29560162266555 L8.34300996975245,40.48096173793378 L9.6291298595679,40.13863744324151 C12.325814162619729,39.354125405815275 14.785795837783832,37.405864681087756 15.940698959469815,35.43838273240807 C17.429017433611175,35.7652340776259 20.27561460816564,36.395152427353885 21.82739118813874,36.395152427353885 C32.13134340457322,36.395152427353885 40.512231630269305,29.105899347376848 40.512231630269305,20.147459969003823 C40.512231630269305,11.189020590630797 32.13134340457322,3.8997765644568485 21.82739118813874,3.8997765644568485 z" id="svg_5" fill="#ecb638" fill-opacity="1" class="selected"/><path fill="#ffffff" fill-opacity="1" stroke="none" stroke-opacity="1" stroke-width="1" stroke-dasharray="none" stroke-linejoin="miter" stroke-linecap="butt" stroke-dashoffset="" fill-rule="nonzero" opacity="1" marker-start="" marker-mid="" marker-end="" id="svg_4" d="M11.081573729948468,35.275863031417984 " style="color: rgb(0, 0, 0);" class=""/></g></svg>