<svg xmlns="http://www.w3.org/2000/svg" xmlns:xlink="http://www.w3.org/1999/xlink" viewBox="0 0 48 48" version="1.1">
<g>
<path style=" fill:#D84315;" d="M 26.890625 27.59375 L 20.40625 21.109375 L 32.238281 12.160156 L 35.839844 15.761719 Z "></path>
<path style=" fill:#90A4AE;" d="M 22.496094 23.199219 C 22.027344 23.664063 21.558594 24.136719 21.085938 24.609375 C 18.777344 26.917969 14.085938 31.738281 14.085938 31.738281 L 13 35 L 16.261719 33.914063 C 16.261719 33.914063 21.082031 29.222656 23.390625 26.914063 C 23.863281 26.441406 24.335938 25.972656 24.800781 25.503906 Z "></path>
<path style=" fill:#FF5722;" d="M 16 21.109375 L 17.019531 20.09375 C 18.425781 18.6875 20.703125 18.6875 22.109375 20.09375 L 28.019531 25.890625 C 29.425781 27.296875 29.425781 29.574219 28.019531 30.980469 L 27 32 Z M 30.144531 10 L 28.835938 11.308594 C 28.109375 12.03125 28.109375 13.203125 28.835938 13.929688 L 34.070313 19.164063 C 34.792969 19.886719 35.96875 19.886719 36.691406 19.164063 L 38 17.855469 Z "></path>
</g>
</svg>
