<svg xmlns="http://www.w3.org/2000/svg" xmlns:xlink="http://www.w3.org/1999/xlink" viewBox="0 0 48 48" version="1.1">
<g>
<path style=" fill:#673AB7;" d="M 39 6 L 9 6 C 7.34375 6 6 7.34375 6 9 L 6 42 L 14.554688 34 L 39 34 C 40.65625 34 42 32.65625 42 31 L 42 9 C 42 7.34375 40.65625 6 39 6 Z "></path>
<path style=" fill:#D1C4E9;" d="M 33 18 L 30 19 L 27 19 L 27 13 L 33 13 Z "></path>
<path style=" fill:#D1C4E9;" d="M 27 27 L 29 27 C 29 27 33 21 33 18 C 33 15 29 16 29 19 C 29 22 27 27 27 27 Z "></path>
<path style=" fill:#D1C4E9;" d="M 23 18 L 20 19 L 17 19 L 17 13 L 23 13 Z "></path>
<path style=" fill:#D1C4E9;" d="M 17 27 L 19 27 C 19 27 23 21 23 18 C 23 15 19 16 19 19 C 19 22 17 27 17 27 Z "></path>
</g>
</svg>