<svg xmlns="http://www.w3.org/2000/svg" xmlns:xlink="http://www.w3.org/1999/xlink" version="1.1" width="50" height="50" style=""><rect id="backgroundrect" width="100%" height="100%" x="0" y="0" fill="none" stroke="none"/>

<g class="currentLayer" style=""><title>Layer 1</title><g id="svg_1" class="">
<path style=" " d="M25,4.558658599853516 C12.316406,4.558658599853516 2,13.531314599853516 2,24.558658599853516 C2,30.746158599853516 5.335937999999999,36.625064599853516 10.949219,40.398502599853515 C10.816406,41.449283599853516 10.285156,44.000064599853516 8.183594,46.984439599853516 L7.078125,48.550846599853514 L9.054687999999999,48.558658599853516 C14.484375,48.558658599853516 18.15625,45.230533599853516 19.363281,43.953189599853516 C21.195313,44.355533599853516 23.089844,44.558658599853516 25,44.558658599853516 C37.683594,44.558658599853516 48,35.586002599853515 48,24.558658599853516 C48,13.531314599853516 37.683594,4.558658599853516 25,4.558658599853516 z" id="svg_2"/>
</g>
<path style=" " d="M24.89132,6.626C13.51052,6.626 4.25376,14.67703 4.25376,24.5717C4.25376,30.12365 8.01727,36.13684 13.05398,39.52269C12.06831,44.09198 11.78418,43.90964 10.86126,45.72098L9.99771,47.03022L11.41824,46.65212C14.39675,45.78562 17.11382,43.63375 18.38942,41.46065C20.03328,41.82166 23.17737,42.51741 24.89132,42.51741C36.27212,42.51741 45.52888,34.46637 45.52888,24.5717C45.52888,14.67703 36.27212,6.626 24.89132,6.626z" id="svg_5" fill="#ffffff" fill-opacity="1" class=""/>
<path fill="#ffffff" fill-opacity="1" stroke="none" stroke-opacity="1" stroke-width="1" stroke-dasharray="none" stroke-linejoin="miter" stroke-linecap="butt" stroke-dashoffset="" fill-rule="nonzero" opacity="1" marker-start="" marker-mid="" marker-end="" id="svg_4" d="M12.124517032258115,38.75053342280607 " style="color: rgb(0, 0, 0);"/></g></svg>