<svg xmlns="http://www.w3.org/2000/svg" xmlns:xlink="http://www.w3.org/1999/xlink" viewBox="0 0 48 48" version="1.1">
<g id="surface1">
<path style=" fill:#B0BEC5;" d="M 9.535156 41.292969 L 6 42 L 6.707031 38.464844 L 19.4375 25.734375 L 22.265625 28.5625 Z "></path>
<path style=" fill:#D84315;" d="M 28.070313 27.105469 L 21 20.035156 L 34 9 L 39 14 Z "></path>
<path style=" fill:#FF5722;" d="M 33.515625 6 L 32.101563 7.414063 C 31.320313 8.195313 31.320313 9.460938 32.101563 10.242188 L 37.757813 15.898438 C 38.539063 16.679688 39.804688 16.679688 40.585938 15.898438 L 42 14.484375 Z "></path>
<path style=" fill:#FF5722;" d="M 26.121094 35 L 27.535156 33.585938 C 29.488281 31.632813 29.488281 28.46875 27.535156 26.515625 L 21.484375 20.464844 C 19.53125 18.511719 16.367188 18.511719 14.414063 20.464844 L 13 21.878906 Z "></path>
<path style=" fill:#37474F;" d="M 3.015625 5.828125 L 5.84375 3 L 44.023438 41.179688 L 41.195313 44.007813 Z "></path>
</g>
</svg>