<?xml version="1.0"?>
<svg xmlns="http://www.w3.org/2000/svg" xmlns:xlink="http://www.w3.org/1999/xlink" version="1.1" viewBox="0 0 192 192" width="64px" height="64px"><g fill="none" fill-rule="nonzero" stroke="none" stroke-width="1" stroke-linecap="butt" stroke-linejoin="miter" stroke-miterlimit="10" stroke-dasharray="" stroke-dashoffset="0" font-family="none" font-weight="none" font-size="none" text-anchor="none" style="mix-blend-mode: normal"><path d="M0,192v-192h192v192z" fill="none" stroke="none"/><g stroke="none"><g id="surface1"><path d="M21,27h150c6.63281,0 12,5.36719 12,12v102c0,6.63281 -5.36719,12 -12,12h-150c-6.63281,0 -12,-5.36719 -12,-12v-102c0,-6.63281 5.36719,-12 12,-12z" fill="#faefde"/><path d="M33,153v-87l63,45z" fill="#efd8be"/><path d="M96,84l-78,-57h156z" fill="#fff7f0"/><path d="M94.73438,84l-71.39062,-52.46484c-2.74219,-2.01562 -6.375,-2.32031 -9.41016,-0.78516c-3.03515,1.53516 -4.93359,4.64063 -4.93359,8.03906v102.21094c0,6.63281 5.36719,12 12,12h12v-87l62.01563,45l63.98438,-45v87h12c6.63281,0 12,-5.36719 12,-12v-102.51562c0,-3.36328 -1.88672,-6.44531 -4.875,-7.98047c-3,-1.54687 -6.59766,-1.28906 -9.33984,0.66797z" fill="#ed7899"/><path d="M171,24h-150c-8.28516,0 -15,6.71484 -15,15v102c0,8.28516 6.71484,15 15,15h150c8.28516,0 15,-6.71484 15,-15v-102c0,-8.28516 -6.71484,-15 -15,-15zM165.44531,30l-67.67578,49.01953c-1.04297,0.76172 -2.46094,0.76172 -3.50391,0l-67.71094,-49.01953zM36,144c1.65234,0 3,-1.34766 3,-3v-6c0,-1.65234 -1.34766,-3 -3,-3v-60.75l54.71484,39.75c3.15235,2.28516 7.41797,2.28516 10.57031,0l54.71484,-39.75v60.75c-1.65234,0 -3,1.34766 -3,3v6c0,1.65234 1.34766,3 3,3v6h-120zM180,141c0,4.96875 -4.03125,9 -9,9h-9v-84.63281c-0.02344,-1.11328 -0.65625,-2.13281 -1.66406,-2.63672c-1.00781,-0.49219 -2.20312,-0.38672 -3.10547,0.26953l-59.46094,43.01953c-1.04297,0.76172 -2.46094,0.76172 -3.50391,0l-59.49609,-43.01953c-0.91406,-0.66797 -2.12109,-0.76172 -3.12891,-0.24609c-1.00781,0.50391 -1.64062,1.54688 -1.64062,2.67188v84.57422h-9c-4.96875,0 -9,-4.03125 -9,-9v-102c0.01172,-3.5625 2.10938,-6.78516 5.36719,-8.21484l73.34765,53.21484c3.15235,2.28516 7.41797,2.28516 10.57031,0l73.34766,-53.09766c3.21094,1.41797 5.30859,4.58203 5.36719,8.09766z" fill="#8d6c9f"/><path d="M51,132c-1.65234,0 -3,1.34766 -3,3v6c0,1.65234 1.34766,3 3,3c1.65234,0 3,-1.34766 3,-3v-6c0,-1.65234 -1.34766,-3 -3,-3z" fill="#8d6c9f"/><path d="M66,132c-1.65234,0 -3,1.34766 -3,3v6c0,1.65234 1.34766,3 3,3c1.65234,0 3,-1.34766 3,-3v-6c0,-1.65234 -1.34766,-3 -3,-3z" fill="#8d6c9f"/><path d="M81,132c-1.65234,0 -3,1.34766 -3,3v6c0,1.65234 1.34766,3 3,3c1.65234,0 3,-1.34766 3,-3v-6c0,-1.65234 -1.34766,-3 -3,-3z" fill="#8d6c9f"/><path d="M96,132c-1.65234,0 -3,1.34766 -3,3v6c0,1.65234 1.34766,3 3,3c1.65234,0 3,-1.34766 3,-3v-6c0,-1.65234 -1.34766,-3 -3,-3z" fill="#8d6c9f"/><path d="M111,132c-1.65234,0 -3,1.34766 -3,3v6c0,1.65234 1.34766,3 3,3c1.65234,0 3,-1.34766 3,-3v-6c0,-1.65234 -1.34766,-3 -3,-3z" fill="#8d6c9f"/><path d="M126,132c-1.65234,0 -3,1.34766 -3,3v6c0,1.65234 1.34766,3 3,3c1.65234,0 3,-1.34766 3,-3v-6c0,-1.65234 -1.34766,-3 -3,-3z" fill="#8d6c9f"/><path d="M141,132c-1.65234,0 -3,1.34766 -3,3v6c0,1.65234 1.34766,3 3,3c1.65234,0 3,-1.34766 3,-3v-6c0,-1.65234 -1.34766,-3 -3,-3z" fill="#8d6c9f"/></g></g><g stroke="none"><g id="Layer_1"><path d="M190.99931,157.99963l-17.99963,-17.99963l17.99963,-17.99963l-14.99969,-14.99969l-17.99963,17.99963l-17.99963,-17.99963l-14.99969,14.99969l17.99963,17.99963l-17.99963,17.99963l14.99969,14.99969l17.99963,-17.99963l17.99963,17.99963z" fill="#ed7899"/><path d="M175.99963,175.99925c-0.76798,0 -1.53597,-0.29399 -2.12096,-0.87898l-15.87867,-15.87867l-15.87867,15.87867c-1.17298,1.17298 -3.06894,1.17298 -4.24191,0l-14.99969,-14.99969c-1.17298,-1.17298 -1.17298,-3.06894 0,-4.24191l15.87867,-15.87867l-15.87867,-15.87867c-1.17298,-1.17298 -1.17298,-3.06894 0,-4.24191l14.99969,-14.99969c1.17298,-1.17298 3.06894,-1.17298 4.24191,0l15.87867,15.87867l15.87867,-15.87867c1.17298,-1.17298 3.06894,-1.17298 4.24191,0l14.99969,14.99969c1.17298,1.17298 1.17298,3.06894 0,4.24191l-15.87867,15.87867l15.87867,15.87867c1.17298,1.17298 1.17298,3.06894 0,4.24191l-14.99969,14.99969c-0.58499,0.58499 -1.35297,0.87898 -2.12096,0.87898zM158,151.99975c0.76798,0 1.53597,0.29399 2.12096,0.87898l15.87867,15.87867l10.75778,-10.75778l-15.87867,-15.87867c-1.17298,-1.17298 -1.17298,-3.06894 0,-4.24191l15.87867,-15.87867l-10.75778,-10.75778l-15.87867,15.87867c-1.17298,1.17298 -3.06894,1.17298 -4.24191,0l-15.87867,-15.87867l-10.75778,10.75778l15.87867,15.87867c1.17298,1.17298 1.17298,3.06894 0,4.24191l-15.87867,15.87867l10.75778,10.75778l15.87867,-15.87867c0.58499,-0.58499 1.35297,-0.87898 2.12096,-0.87898z" fill="#8d6c9f"/></g></g><path d="M122,176v-72h72v72z" id="overlay-drag" fill="#ff0000" stroke="none" opacity="0"/></g></svg>
